<svg xmlns="http://www.w3.org/2000/svg" xmlns:xlink="http://www.w3.org/1999/xlink" width="566" height="512" viewBox="0 0 566 512">
  <defs>
    <rect id="rect-1" width="512" height="512" x="0" y="0"/>
    <mask id="mask-2" maskContentUnits="userSpaceOnUse" maskUnits="userSpaceOnUse">
      <rect width="566" height="512" x="0" y="0" fill="black"/>
      <use fill="white" xlink:href="#rect-1"/>
    </mask>
    <ellipse id="ellipse-10" cx="466.5" cy="381.133" rx="99.5" ry="99.133"/>
    <mask id="mask-11" x="0" y="0" maskContentUnits="userSpaceOnUse" maskUnits="userSpaceOnUse">
      <rect width="566" height="512" x="0" y="0" fill="black"/>
      <use fill="white" xlink:href="#ellipse-10"/>
    </mask>
  </defs>
  <g>
    <g>
      <use fill="none" xlink:href="#rect-1"/>
      <g mask="url(#mask-2)">
        <path fill="rgb(255,72,72)" fill-rule="evenodd" d="M491.719 135.652c-5.658-21.512-22.33-38.455-43.498-44.205C409.853 80.999 295.348 80.999 256 80.999c-39.348 0-153.853 0-192.221 10.448-21.168 5.75-37.84 22.693-43.498 44.205C10 174.644 10 255.999 10 255.999s0 81.354 10.281 120.347c5.658 21.512 22.33 38.455 43.498 44.205C102.147 430.999 198 430.999 256 430.999s153.853 0 192.221-10.448c21.168-5.75 37.84-22.693 43.498-44.205C502 337.353 502 255.999 502 255.999s0-81.355-10.281-120.347z"/>
        <path fill="rgb(0,0,0)" fill-rule="evenodd" d="M258.503 91.003h-.027l-.725-.002c-5.515-.015-9.975-4.491-9.973-10.003v-.024c.015-5.514 4.49-9.973 10-9.973h.028l.724.002c5.515.015 9.975 4.491 9.973 10.003v.024c-.015 5.514-4.49 9.973-10 9.973z"/>
        <path fill="rgb(0,0,0)" fill-rule="evenodd" d="M256 440.999c-6.336 0-155.641-.123-194.849-10.8-24.607-6.684-43.976-26.345-50.542-51.31C.121 339.107 0 259.374 0 255.999s.121-83.108 10.611-122.896c6.564-24.959 25.933-44.621 50.546-51.306 25.901-7.053 98.771-9.571 155.34-10.44 5.508-.048 10.068 4.323 10.153 9.845.084 5.522-4.323 10.068-9.845 10.152-78.34 1.205-131.752 4.664-150.399 9.742-17.736 4.818-31.703 19.033-36.455 37.1C20.12 175.484 20 255.198 20 255.999c0 .8.12 80.514 9.95 117.797 4.753 18.073 18.72 32.288 36.45 37.104 36.654 9.981 188.075 10.099 189.6 10.099 1.525 0 152.946-.117 189.594-10.097 17.736-4.818 31.703-19.033 36.455-37.1C491.88 336.513 492 256.799 492 255.998c0-.8-.12-80.514-9.95-117.797-4.753-18.073-18.72-32.288-36.45-37.104-18.247-4.969-70.125-8.404-146.085-9.674-5.522-.092-9.924-4.644-9.832-10.166.092-5.522 4.676-9.907 10.166-9.832 54.88.917 125.625 3.462 151 10.373 24.607 6.684 43.976 26.345 50.542 51.31C511.879 172.891 512 252.624 512 255.999s-.121 83.108-10.611 122.896c-6.564 24.959-25.933 44.621-50.546 51.306-39.202 10.675-188.507 10.798-194.843 10.798z"/>
        <path fill="rgb(255,255,255)" fill-rule="evenodd" d="M208.084 185.521l124 72-124 72v-144z"/>
        <path fill="rgb(0,0,0)" fill-rule="evenodd" d="M58 331.021c-5.523 0-10-4.477-10-10v-81.5c0-5.523 4.477-10 10-10s10 4.477 10 10v81.5c0 5.523-4.477 10-10 10z"/>
        <path fill="rgb(0,0,0)" fill-rule="evenodd" d="M58 204.139c-5.523 0-10-4.477-10-10v-.118c0-5.523 4.477-10 10-10s10 4.477 10 10v.118c0 5.523-4.477 10-10 10z"/>
        <path fill="rgb(0,0,0)" fill-rule="evenodd" d="M203.09500122 338.18798828c1.54403687.88903809 3.26602173 1.33300781 4.98898315 1.33300781 1.7350464 0 3.47003174-.4500122 5.0220337-1.35198974l124-72c3.0830078-1.79000855 4.9790039-5.0840149 4.9790039-8.64801026s-1.89703369-6.8580017-4.9790039-8.64801025l-124-72c-3.09399414-1.79699707-6.91101075-1.8039856-10.01101685-.01898193-3.09997559 1.78500366-5.01098633 5.08999633-5.01098633 8.66699218v144c0 3.57800293 1.91101074 6.88201905 5.01098633 8.6669922zm109.07400513-80.66699219l-94.08502198 54.63000489V202.8909912l94.08502198 54.63000488z"/>
      </g>
    </g>
    <g>
      <g>
        <use fill="rgb(255,255,255)" xlink:href="#ellipse-10"/>
        <use fill-opacity="0" stroke="rgb(0,0,0)" stroke-linecap="butt" stroke-linejoin="miter" stroke-width="30" mask="url(#mask-11)" xlink:href="#ellipse-10"/>
      </g>
      <g>
        <path fill="rgb(255,72,72)" fill-rule="evenodd" d="M481.01041667 427.9465311c0 8.2611244-6.21875 14.4569677-14.51041667 14.4569677s-14.51041667-6.1958433-14.51041667-14.4569677v-92.93764952c0-7.57269737 6.21875-14.4569677 14.51041667-14.4569677 7.60069444 0 14.51041667 6.1958433 14.51041667 14.4569677v92.93764952z"/>
        <path fill="rgb(255,72,72)" fill-rule="evenodd" d="M476.86458333 438.2729366c-5.52777777 5.50741627-14.51041666 5.50741627-20.03819444 0-5.52777778-5.50741627-5.52777778-14.4569677 0-19.96438397l33.16666667-33.0444976c5.52777777-5.50741627 14.51041666-5.50741627 20.03819444 0 5.52777778 5.50741626 5.52777778 14.4569677 0 19.96438397l-33.16666667 33.0444976z"/>
        <path fill="rgb(255,72,72)" fill-rule="evenodd" d="M476.86458333 418.30855263c5.52777778 5.50741627 5.52777778 14.4569677 0 19.96438397-5.52777777 5.50741627-14.51041666 5.50741627-20.03819444 0L422.96875 405.228439c-5.52777778-5.50741627-5.52777778-14.4569677 0-19.96438398 5.52777778-5.50741626 14.51041667-5.50741626 20.03819444 0l33.8576389 33.04449761z"/>
      </g>
    </g>
  </g>
</svg>
